<svg width="34" height="33" viewBox="0 0 34 33" fill="none" xmlns="http://www.w3.org/2000/svg">
<path d="M12.2336 0.545431C12.3534 0.617945 12.4578 0.713605 12.541 0.826948C12.6241 0.94029 12.6844 1.06909 12.7184 1.206C12.7523 1.34291 12.7592 1.48524 12.7388 1.62486C12.7183 1.76448 12.6709 1.89866 12.5991 2.01973L7.18887 11.1384H26.8111L21.3988 2.01973C21.2539 1.7752 21.211 1.48251 21.2796 1.20602C21.3481 0.929538 21.5225 0.691916 21.7642 0.545431C22.006 0.398946 22.2954 0.355596 22.5688 0.424919C22.8422 0.494241 23.0772 0.670557 23.222 0.915079L29.2889 11.1384H32.9375C33.2193 11.1384 33.4895 11.2516 33.6888 11.4532C33.8881 11.6547 34 11.928 34 12.213V14.3621C34 14.6471 33.8881 14.9204 33.6888 15.1219C33.4895 15.3235 33.2193 15.4367 32.9375 15.4367H1.0625C0.780707 15.4367 0.510456 15.3235 0.311199 15.1219C0.111942 14.9204 0 14.6471 0 14.3621V12.213C0 11.928 0.111942 11.6547 0.311199 11.4532C0.510456 11.2516 0.780707 11.1384 1.0625 11.1384H4.71112L10.7738 0.915079C10.8455 0.793985 10.94 0.688363 11.0521 0.604247C11.1642 0.52013 11.2915 0.459167 11.4269 0.424841C11.5623 0.390514 11.703 0.383496 11.8411 0.404187C11.9791 0.424878 12.1139 0.472873 12.2336 0.545431ZM7.21225 30.4805L4.06725 17.5858H2.006L5.24663 31.396C5.33055 31.7476 5.52895 32.0604 5.80993 32.2842C6.09091 32.5079 6.43813 32.6296 6.79575 32.6296H27.2085C27.5665 32.6301 27.9142 32.5086 28.1956 32.2848C28.477 32.061 28.6757 31.748 28.7598 31.396L31.994 17.5858H29.9285L26.7856 30.4805H7.21225Z" fill="white"/>
</svg>
