<svg width="34" height="34" viewBox="0 0 34 34" fill="none" xmlns="http://www.w3.org/2000/svg">
<path fill-rule="evenodd" clip-rule="evenodd" d="M12.75 2.125H25.5V17C25.5 17.188 25.4502 17.3726 25.3556 17.5351C25.2609 17.6975 25.1249 17.8319 24.9614 17.9246C24.7978 18.0173 24.6126 18.0649 24.4246 18.0626C24.2366 18.0604 24.0526 18.0083 23.8914 17.9116L19.125 15.0514L14.3586 17.9138C14.1972 18.0105 14.013 18.0626 13.8249 18.0648C13.6367 18.067 13.4513 18.0191 13.2877 17.9262C13.1241 17.8333 12.9881 17.6985 12.8936 17.5358C12.7992 17.3731 12.7496 17.1882 12.75 17V2.125Z" fill="white"/>
<path d="M6.375 0H27.625C28.7522 0 29.8332 0.447767 30.6302 1.2448C31.4272 2.04183 31.875 3.12283 31.875 4.25V29.75C31.875 30.8772 31.4272 31.9582 30.6302 32.7552C29.8332 33.5522 28.7522 34 27.625 34H6.375C5.24783 34 4.16683 33.5522 3.3698 32.7552C2.57277 31.9582 2.125 30.8772 2.125 29.75V27.625H4.25V29.75C4.25 30.3136 4.47388 30.8541 4.8724 31.2526C5.27091 31.6511 5.81141 31.875 6.375 31.875H27.625C28.1886 31.875 28.7291 31.6511 29.1276 31.2526C29.5261 30.8541 29.75 30.3136 29.75 29.75V4.25C29.75 3.68641 29.5261 3.14591 29.1276 2.7474C28.7291 2.34888 28.1886 2.125 27.625 2.125H6.375C5.81141 2.125 5.27091 2.34888 4.8724 2.7474C4.47388 3.14591 4.25 3.68641 4.25 4.25V6.375H2.125V4.25C2.125 3.12283 2.57277 2.04183 3.3698 1.2448C4.16683 0.447767 5.24783 0 6.375 0Z" fill="white"/>
<path d="M2.125 10.625V9.5625C2.125 9.28071 2.23694 9.01046 2.4362 8.8112C2.63546 8.61194 2.90571 8.5 3.1875 8.5C3.46929 8.5 3.73954 8.61194 3.9388 8.8112C4.13806 9.01046 4.25 9.28071 4.25 9.5625V10.625H5.3125C5.59429 10.625 5.86454 10.7369 6.0638 10.9362C6.26306 11.1355 6.375 11.4057 6.375 11.6875C6.375 11.9693 6.26306 12.2395 6.0638 12.4388C5.86454 12.6381 5.59429 12.75 5.3125 12.75H1.0625C0.780707 12.75 0.510456 12.6381 0.311199 12.4388C0.111942 12.2395 0 11.9693 0 11.6875C0 11.4057 0.111942 11.1355 0.311199 10.9362C0.510456 10.7369 0.780707 10.625 1.0625 10.625H2.125ZM2.125 17V15.9375C2.125 15.6557 2.23694 15.3855 2.4362 15.1862C2.63546 14.9869 2.90571 14.875 3.1875 14.875C3.46929 14.875 3.73954 14.9869 3.9388 15.1862C4.13806 15.3855 4.25 15.6557 4.25 15.9375V17H5.3125C5.59429 17 5.86454 17.1119 6.0638 17.3112C6.26306 17.5105 6.375 17.7807 6.375 18.0625C6.375 18.3443 6.26306 18.6145 6.0638 18.8138C5.86454 19.0131 5.59429 19.125 5.3125 19.125H1.0625C0.780707 19.125 0.510456 19.0131 0.311199 18.8138C0.111942 18.6145 0 18.3443 0 18.0625C0 17.7807 0.111942 17.5105 0.311199 17.3112C0.510456 17.1119 0.780707 17 1.0625 17H2.125ZM2.125 23.375V22.3125C2.125 22.0307 2.23694 21.7605 2.4362 21.5612C2.63546 21.3619 2.90571 21.25 3.1875 21.25C3.46929 21.25 3.73954 21.3619 3.9388 21.5612C4.13806 21.7605 4.25 22.0307 4.25 22.3125V23.375H5.3125C5.59429 23.375 5.86454 23.4869 6.0638 23.6862C6.26306 23.8855 6.375 24.1557 6.375 24.4375C6.375 24.7193 6.26306 24.9895 6.0638 25.1888C5.86454 25.3881 5.59429 25.5 5.3125 25.5H1.0625C0.780707 25.5 0.510456 25.3881 0.311199 25.1888C0.111942 24.9895 0 24.7193 0 24.4375C0 24.1557 0.111942 23.8855 0.311199 23.6862C0.510456 23.4869 0.780707 23.375 1.0625 23.375H2.125Z" fill="white"/>
</svg>
