<svg width="34" height="34" viewBox="0 0 34 34" fill="none" xmlns="http://www.w3.org/2000/svg">
<path d="M10.4615 12.4667C10.8083 12.4667 11.1409 12.5861 11.3862 12.7986C11.6314 13.0112 11.7692 13.2994 11.7692 13.6V27.2C11.7692 27.5006 11.6314 27.7889 11.3862 28.0014C11.1409 28.2139 10.8083 28.3333 10.4615 28.3333C10.1147 28.3333 9.78206 28.2139 9.53682 28.0014C9.29158 27.7889 9.15381 27.5006 9.15381 27.2V13.6C9.15381 13.2994 9.29158 13.0112 9.53682 12.7986C9.78206 12.5861 10.1147 12.4667 10.4615 12.4667ZM17 12.4667C17.3468 12.4667 17.6794 12.5861 17.9246 12.7986C18.1699 13.0112 18.3077 13.2994 18.3077 13.6V27.2C18.3077 27.5006 18.1699 27.7889 17.9246 28.0014C17.6794 28.2139 17.3468 28.3333 17 28.3333C16.6531 28.3333 16.3205 28.2139 16.0753 28.0014C15.83 27.7889 15.6923 27.5006 15.6923 27.2V13.6C15.6923 13.2994 15.83 13.0112 16.0753 12.7986C16.3205 12.5861 16.6531 12.4667 17 12.4667ZM24.8461 13.6C24.8461 13.2994 24.7083 13.0112 24.4631 12.7986C24.2179 12.5861 23.8852 12.4667 23.5384 12.4667C23.1916 12.4667 22.859 12.5861 22.6137 12.7986C22.3685 13.0112 22.2307 13.2994 22.2307 13.6V27.2C22.2307 27.5006 22.3685 27.7889 22.6137 28.0014C22.859 28.2139 23.1916 28.3333 23.5384 28.3333C23.8852 28.3333 24.2179 28.2139 24.4631 28.0014C24.7083 27.7889 24.8461 27.5006 24.8461 27.2V13.6Z" fill="#20A3DC"/>
<path d="M34 6.8C34 7.40116 33.7244 7.97769 33.234 8.40278C32.7435 8.82786 32.0783 9.06667 31.3846 9.06667H30.0769V29.4667C30.0769 30.669 29.5258 31.8221 28.5449 32.6722C27.5639 33.5224 26.2334 34 24.8462 34H9.15385C7.76656 34 6.43609 33.5224 5.45513 32.6722C4.47417 31.8221 3.92308 30.669 3.92308 29.4667V9.06667H2.61538C1.92174 9.06667 1.25651 8.82786 0.766028 8.40278C0.275549 7.97769 0 7.40116 0 6.8V4.53333C0 3.93218 0.275549 3.35564 0.766028 2.93056C1.25651 2.50548 1.92174 2.26667 2.61538 2.26667H11.7692C11.7692 1.66551 12.0448 1.08897 12.5353 0.663891C13.0257 0.238809 13.691 0 14.3846 0L19.6154 0C20.309 0 20.9743 0.238809 21.4647 0.663891C21.9552 1.08897 22.2308 1.66551 22.2308 2.26667H31.3846C32.0783 2.26667 32.7435 2.50548 33.234 2.93056C33.7244 3.35564 34 3.93218 34 4.53333V6.8ZM6.84708 9.06667L6.53846 9.2004V29.4667C6.53846 30.0678 6.81401 30.6444 7.30449 31.0694C7.79497 31.4945 8.4602 31.7333 9.15385 31.7333H24.8462C25.5398 31.7333 26.205 31.4945 26.6955 31.0694C27.186 30.6444 27.4615 30.0678 27.4615 29.4667V9.2004L27.1529 9.06667H6.84708ZM2.61538 6.8H31.3846V4.53333H2.61538V6.8Z" fill="#20A3DC"/>
</svg>
