<svg width="36" height="35" viewBox="0 0 36 35" fill="none" xmlns="http://www.w3.org/2000/svg">
<path d="M17.5437 10.0117C16.059 10.0117 14.6076 10.4508 13.3731 11.2737C12.1386 12.0965 11.1765 13.266 10.6083 14.6344C10.0401 16.0027 9.89146 17.5083 10.1811 18.9609C10.4708 20.4135 11.1857 21.7478 12.2356 22.7951C13.2854 23.8424 14.623 24.5556 16.0792 24.8445C17.5354 25.1335 19.0448 24.9852 20.4165 24.4184C21.7882 23.8516 22.9606 22.8918 23.7855 21.6604C24.6103 20.4289 25.0506 18.9811 25.0506 17.5C25.0506 16.5166 24.8565 15.5429 24.4792 14.6343C24.102 13.7258 23.549 12.9003 22.8519 12.2049C22.1549 11.5095 21.3273 10.958 20.4165 10.5816C19.5057 10.2053 18.5296 10.0116 17.5437 10.0117ZM17.5437 22.3615C16.5798 22.3615 15.6376 22.0764 14.8362 21.5422C14.0347 21.008 13.4101 20.2487 13.0412 19.3604C12.6724 18.4721 12.5758 17.4946 12.7639 16.5515C12.9519 15.6085 13.4161 14.7423 14.0977 14.0624C14.7793 13.3825 15.6476 12.9195 16.593 12.7319C17.5384 12.5443 18.5183 12.6406 19.4088 13.0086C20.2993 13.3765 21.0604 13.9996 21.5959 14.7991C22.1314 15.5986 22.4173 16.5385 22.4172 17.5C22.4173 18.1385 22.2913 18.7707 22.0464 19.3605C21.8015 19.9504 21.4426 20.4863 20.99 20.9378C20.5374 21.3892 20.0002 21.7473 19.4088 21.9916C18.8175 22.2359 18.1838 22.3616 17.5437 22.3615Z" fill="white"/>
<path d="M32.0746 11.4876C32.0506 10.2778 31.821 9.08093 31.3956 7.94783C31.0278 6.97496 30.4525 6.09347 29.7093 5.36445C28.9796 4.62237 28.0961 4.04827 27.1207 3.68231C25.9849 3.25762 24.785 3.02858 23.5722 3.00497C22.0134 2.93419 21.5151 2.91669 17.545 2.91669C13.5748 2.91669 13.0761 2.93311 11.5165 3.00497C10.3038 3.02888 9.1039 3.25791 7.96801 3.68231C6.99246 4.04861 6.10868 4.62265 5.37825 5.36445C4.63393 6.09251 4.05839 6.97427 3.69206 7.94783C3.26661 9.08094 3.03702 10.2778 3.01305 11.4876C2.94099 13.0425 2.92444 13.5396 2.92444 17.5C2.92444 21.4604 2.94099 21.9574 3.01302 23.5124C3.03699 24.7221 3.2666 25.9191 3.69206 27.0522C4.0585 28.0257 4.63402 28.9074 5.37825 29.6356C6.10904 30.3769 6.99271 30.9508 7.96801 31.3176C9.10394 31.7419 10.3038 31.9709 11.5165 31.995C13.0761 32.0657 13.5736 32.0833 17.5438 32.0833C21.5139 32.0833 22.0123 32.0668 23.571 31.995C24.7838 31.9711 25.9836 31.742 27.1195 31.3176C28.0908 30.943 28.9729 30.3701 29.7093 29.6355C30.4457 28.901 31.02 28.0211 31.3956 27.0522C31.8215 25.9192 32.0511 24.7222 32.0746 23.5124C32.1455 21.9563 32.162 21.4604 32.162 17.5C32.162 13.5396 32.1455 13.0425 32.0746 11.4876ZM29.4446 23.3935C29.4333 24.3183 29.2632 25.2343 28.9417 26.1017C28.6983 26.7306 28.3257 27.3017 27.8478 27.7783C27.3698 28.2549 26.7971 28.6263 26.1666 28.8688C25.2972 29.1903 24.3788 29.36 23.4516 29.3705C21.9106 29.4411 21.4478 29.4553 17.5437 29.4553C13.6396 29.4553 13.178 29.4411 11.6375 29.3705C10.7103 29.3599 9.79196 29.1902 8.92255 28.8688C8.28755 28.6347 7.71303 28.262 7.24097 27.778C6.75501 27.3081 6.38127 26.7352 6.14745 26.1017C5.82512 25.2345 5.655 24.3184 5.64454 23.3935C5.57364 21.8563 5.55953 21.3946 5.55953 17.5001C5.55953 13.6056 5.57486 13.1452 5.64454 11.6067C5.65622 10.682 5.82631 9.76609 6.14745 8.89858C6.38211 8.26514 6.75572 7.69203 7.24097 7.22114C7.7122 6.7361 8.28697 6.36325 8.92255 6.13031C9.79193 5.80882 10.7103 5.63912 11.6375 5.62865C13.1785 5.55793 13.6413 5.54384 17.5437 5.54384C21.446 5.54384 21.9093 5.55914 23.4516 5.62865C24.3787 5.6403 25.2969 5.80996 26.1666 6.13031C26.7973 6.37276 27.3701 6.74436 27.8481 7.22117C28.3261 7.69797 28.6986 8.26939 28.9417 8.89859C29.2639 9.7658 29.4341 10.6819 29.4446 11.6067C29.5155 13.1453 29.5296 13.6057 29.5296 17.5001C29.5296 21.3945 29.5155 21.855 29.4446 23.3935H29.4446Z" fill="white"/>
<path d="M25.3485 7.96545H25.3478C24.8826 7.96554 24.4366 8.14994 24.1077 8.4781C23.7788 8.80625 23.5941 9.25129 23.5941 9.71531C23.5942 10.1793 23.779 10.6243 24.1079 10.9524C24.4368 11.2805 24.883 11.4648 25.3481 11.4648C25.8133 11.4648 26.2594 11.2805 26.5883 10.9524C26.9173 10.6243 27.1021 10.1793 27.1021 9.71531C27.1022 9.25129 26.9175 8.80625 26.5886 8.4781C26.2597 8.14994 25.8136 7.96554 25.3485 7.96545Z" fill="white"/>
</svg>
