<svg width="40" height="38" viewBox="0 0 40 38" fill="none" xmlns="http://www.w3.org/2000/svg">
<path d="M20.1559 11.0089C18.4956 11.0089 16.8726 11.4768 15.4922 12.3533C14.1117 13.2299 13.0358 14.4758 12.4005 15.9334C11.7651 17.3911 11.5989 18.9951 11.9228 20.5425C12.2467 22.09 13.0462 23.5114 14.2201 24.627C15.3941 25.7427 16.8898 26.5024 18.5182 26.8102C20.1465 27.118 21.8344 26.9601 23.3682 26.3563C24.9021 25.7525 26.2131 24.73 27.1355 23.4182C28.0579 22.1063 28.5502 20.564 28.5502 18.9862C28.5503 17.9386 28.3331 16.9013 27.9113 15.9334C27.4894 14.9656 26.8711 14.0861 26.0916 13.3454C25.3121 12.6046 24.3867 12.017 23.3683 11.6161C22.3498 11.2152 21.2582 11.0089 20.1559 11.0089ZM20.1559 24.1651C19.078 24.1651 18.0244 23.8613 17.1282 23.2923C16.232 22.7232 15.5335 21.9144 15.121 20.968C14.7085 20.0217 14.6006 18.9804 14.8109 17.9758C15.0212 16.9712 15.5402 16.0484 16.3024 15.3241C17.0645 14.5998 18.0356 14.1066 19.0927 13.9068C20.1499 13.7069 21.2456 13.8095 22.2414 14.2015C23.2372 14.5935 24.0883 15.2573 24.6871 16.109C25.286 16.9606 25.6056 17.9619 25.6055 18.9862C25.6056 19.6663 25.4647 20.3398 25.1909 20.9682C24.917 21.5966 24.5156 22.1675 24.0096 22.6484C23.5035 23.1294 22.9027 23.5108 22.2415 23.7711C21.5802 24.0313 20.8715 24.1652 20.1559 24.1651Z" fill="black"/>
<path d="M36.4046 12.5812C36.3778 11.2925 36.1211 10.0174 35.6453 8.81035C35.2341 7.77396 34.5907 6.83492 33.7596 6.0583C32.9436 5.26776 31.9557 4.65618 30.8651 4.26633C29.5949 3.81391 28.2531 3.56991 26.897 3.54477C25.1539 3.46936 24.5967 3.45071 20.1572 3.45071C15.7177 3.45071 15.16 3.46821 13.416 3.54477C12.0599 3.57023 10.7181 3.81422 9.44796 4.26633C8.35707 4.65654 7.36881 5.26806 6.55202 6.0583C5.7197 6.83389 5.07612 7.77323 4.66648 8.81035C4.19073 10.0174 3.93399 11.2925 3.90719 12.5812C3.82661 14.2376 3.80811 14.7673 3.80811 18.9862C3.80811 23.2052 3.82661 23.7347 3.90716 25.3911C3.93396 26.6799 4.19072 27.955 4.66648 29.1621C5.07624 30.1991 5.7198 31.1384 6.55202 31.9141C7.36921 32.7039 8.35736 33.3153 9.44796 33.706C10.7182 34.158 12.0599 34.4019 13.416 34.4276C15.16 34.5029 15.7163 34.5217 20.1558 34.5217C24.5954 34.5217 25.1526 34.5041 26.8957 34.4276C28.2518 34.4021 29.5935 34.1581 30.8637 33.706C31.9498 33.3069 32.9362 32.6966 33.7597 31.9141C34.5831 31.1316 35.2253 30.1942 35.6453 29.1621C36.1216 27.9551 36.3783 26.6799 36.4046 25.3911C36.4839 23.7335 36.5023 23.2052 36.5023 18.9862C36.5023 14.7673 36.4839 14.2376 36.4046 12.5812ZM33.4636 25.2645C33.451 26.2497 33.2608 27.2255 32.9013 28.1496C32.6292 28.8195 32.2125 29.4279 31.678 29.9356C31.1436 30.4433 30.5032 30.839 29.7981 31.0973C28.8259 31.4398 27.7989 31.6206 26.7622 31.6317C25.039 31.707 24.5214 31.722 20.1557 31.722C15.7901 31.722 15.2739 31.707 13.5513 31.6317C12.5145 31.6204 11.4875 31.4397 10.5153 31.0973C9.80528 30.8479 9.16283 30.4509 8.63497 29.9352C8.09155 29.4347 7.67362 28.8244 7.41216 28.1496C7.05173 27.2257 6.86149 26.2498 6.8498 25.2645C6.77051 23.6269 6.75473 23.1351 6.75473 18.9863C6.75473 14.8375 6.77188 14.3471 6.8498 12.7081C6.86286 11.723 7.05305 10.7473 7.41216 9.82317C7.67456 9.14838 8.09235 8.53784 8.63497 8.03622C9.16191 7.5195 9.80463 7.12231 10.5153 6.87416C11.4875 6.53168 12.5145 6.3509 13.5513 6.33974C15.2744 6.26441 15.792 6.2494 20.1557 6.2494C24.5195 6.2494 25.0375 6.2657 26.7622 6.33974C27.7988 6.35215 28.8255 6.5329 29.7981 6.87416C30.5034 7.13244 31.1439 7.52831 31.6784 8.03624C32.2129 8.54417 32.6295 9.1529 32.9013 9.82319C33.2616 10.747 33.4519 11.7229 33.4636 12.7081C33.5429 14.3471 33.5587 14.8376 33.5587 18.9863C33.5587 23.135 33.5429 23.6255 33.4637 25.2645H33.4636Z" fill="black"/>
<path d="M28.8831 8.8291H28.8824C28.3623 8.82919 27.8634 9.02563 27.4957 9.37522C27.1279 9.7248 26.9213 10.1989 26.9214 10.6932C26.9214 11.1875 27.1281 11.6616 27.4959 12.0111C27.8638 12.3606 28.3626 12.557 28.8828 12.557C29.4029 12.557 29.9018 12.3606 30.2696 12.0111C30.6374 11.6616 30.8441 11.1875 30.8442 10.6932C30.8442 10.1989 30.6376 9.7248 30.2699 9.37522C29.9021 9.02563 29.4033 8.82919 28.8831 8.8291Z" fill="black"/>
</svg>
