<svg width="34" height="34" viewBox="0 0 34 34" fill="none" xmlns="http://www.w3.org/2000/svg">
<g clip-path="url(#clip0_1_73)">
<path d="M4.25 2.125C3.68641 2.125 3.14591 2.34888 2.7474 2.7474C2.34888 3.14591 2.125 3.68641 2.125 4.25V29.75C2.125 30.3136 2.34888 30.8541 2.7474 31.2526C3.14591 31.6511 3.68641 31.875 4.25 31.875H29.75C30.3136 31.875 30.8541 31.6511 31.2526 31.2526C31.6511 30.8541 31.875 30.3136 31.875 29.75V4.25C31.875 3.68641 31.6511 3.14591 31.2526 2.7474C30.8541 2.34888 30.3136 2.125 29.75 2.125H20.1875C19.6239 2.125 19.0834 2.34888 18.6849 2.7474C18.2864 3.14591 18.0625 3.68641 18.0625 4.25V13.8125H22.3125C22.5229 13.8121 22.7287 13.8742 22.9038 13.991C23.0789 14.1077 23.2153 14.2738 23.2959 14.4681C23.3765 14.6625 23.3975 14.8764 23.3564 15.0828C23.3152 15.2892 23.2137 15.4787 23.0648 15.6273L17.7523 20.9398C17.6536 21.0387 17.5363 21.1172 17.4072 21.1708C17.2781 21.2243 17.1398 21.2519 17 21.2519C16.8602 21.2519 16.7219 21.2243 16.5928 21.1708C16.4637 21.1172 16.3464 21.0387 16.2477 20.9398L10.9352 15.6273C10.7863 15.4787 10.6848 15.2892 10.6436 15.0828C10.6025 14.8764 10.6235 14.6625 10.7041 14.4681C10.7847 14.2738 10.9211 14.1077 11.0962 13.991C11.2713 13.8742 11.4771 13.8121 11.6875 13.8125H15.9375V4.25C15.9375 3.12283 16.3853 2.04183 17.1823 1.2448C17.9793 0.447767 19.0603 0 20.1875 0L29.75 0C30.8772 0 31.9582 0.447767 32.7552 1.2448C33.5522 2.04183 34 3.12283 34 4.25V29.75C34 30.8772 33.5522 31.9582 32.7552 32.7552C31.9582 33.5522 30.8772 34 29.75 34H4.25C3.12283 34 2.04183 33.5522 1.2448 32.7552C0.447767 31.9582 0 30.8772 0 29.75V4.25C0 3.12283 0.447767 2.04183 1.2448 1.2448C2.04183 0.447767 3.12283 0 4.25 0L9.5625 0C9.84429 0 10.1145 0.111942 10.3138 0.311199C10.5131 0.510456 10.625 0.780707 10.625 1.0625C10.625 1.34429 10.5131 1.61454 10.3138 1.8138C10.1145 2.01306 9.84429 2.125 9.5625 2.125H4.25Z" fill="white"/>
</g>
<defs>
<clipPath id="clip0_1_73">
<rect width="34" height="34" fill="white"/>
</clipPath>
</defs>
</svg>
