<svg width="22" height="22" viewBox="0 0 22 22" fill="none" xmlns="http://www.w3.org/2000/svg">
<path d="M16.1453 13.8412C17.4767 12.1186 18.073 9.9829 17.8149 7.86133C17.5569 5.73976 16.4635 3.7888 14.7534 2.39878C13.0434 1.00876 10.8429 0.282184 8.59216 0.364413C6.34141 0.446642 4.20639 1.33161 2.61426 2.84227C1.02212 4.35293 0.0902833 6.37788 0.00516828 8.51198C-0.0799467 10.6461 0.687939 12.732 2.1552 14.3523C3.62246 15.9727 5.68089 17.008 7.91866 17.2512C10.1564 17.4943 12.4085 16.9274 14.2244 15.6638H14.223C14.2633 15.7159 14.3083 15.7659 14.3578 15.8137L19.6515 20.833C19.9093 21.0776 20.2591 21.2151 20.6238 21.2152C20.9886 21.2154 21.3384 21.0781 21.5965 20.8336C21.8545 20.5892 21.9995 20.2576 21.9996 19.9117C21.9997 19.5659 21.855 19.2342 21.5971 18.9895L16.3034 13.9703C16.2543 13.9231 16.2014 13.8808 16.1453 13.8412ZM16.5 8.82978C16.5 9.77141 16.3044 10.7038 15.9244 11.5738C15.5443 12.4437 14.9873 13.2342 14.285 13.9C13.5828 14.5658 12.7491 15.094 11.8316 15.4543C10.914 15.8147 9.93064 16.0002 8.93751 16.0002C7.94439 16.0002 6.961 15.8147 6.04347 15.4543C5.12595 15.094 4.29226 14.5658 3.59002 13.9C2.88778 13.2342 2.33073 12.4437 1.95067 11.5738C1.57062 10.7038 1.37501 9.77141 1.37501 8.82978C1.37501 6.92808 2.17178 5.10427 3.59002 3.75957C5.00826 2.41486 6.93181 1.65941 8.93751 1.65941C10.9432 1.65941 12.8668 2.41486 14.285 3.75957C15.7033 5.10427 16.5 6.92808 16.5 8.82978Z" fill="white"/>
</svg>
