<svg width="36" height="35" viewBox="0 0 36 35" fill="none" xmlns="http://www.w3.org/2000/svg">
<path d="M32.1625 8.45262C31.0678 8.93683 29.9065 9.25454 28.7174 9.39513C29.97 8.64751 30.9074 7.47106 31.3548 6.08504C30.1774 6.78265 28.8888 7.27376 27.545 7.53704C26.7218 6.6624 25.6541 6.0547 24.4804 5.79277C23.3067 5.53085 22.0812 5.62678 20.9629 6.06813C19.8445 6.50948 18.8849 7.27588 18.2085 8.26792C17.5322 9.25995 17.1702 10.4318 17.1697 11.6316C17.1692 12.0906 17.221 12.5481 17.3242 12.9955C14.9393 12.8762 12.6062 12.2581 10.4764 11.1811C8.34649 10.1041 6.46746 8.59239 4.96124 6.74405C4.19426 8.06128 3.95927 9.62055 4.30407 11.1045C4.64887 12.5885 5.54756 13.8856 6.81725 14.732C5.86463 14.7025 4.93293 14.4461 4.10001 13.984V14.0596C4.1002 15.4411 4.57939 16.78 5.45631 17.8492C6.33324 18.9184 7.55392 19.6522 8.91134 19.9261C8.39633 20.0662 7.8648 20.1367 7.33099 20.1358C6.95215 20.1358 6.57414 20.1006 6.20188 20.0305C6.58521 21.219 7.33124 22.2584 8.33571 23.0034C9.34018 23.7483 10.5529 24.1616 11.8043 24.1854C9.28901 26.1501 6.09587 27.0407 2.92383 26.6622C5.66615 28.4209 8.85814 29.3546 12.1183 29.3517C14.3637 29.3671 16.5898 28.9373 18.6673 28.0872C20.7448 27.2371 22.6322 25.9837 24.22 24.3999C25.8078 22.816 27.0642 20.9332 27.9164 18.8608C28.7686 16.7885 29.1995 14.5678 29.184 12.328C29.184 12.0684 29.1779 11.8104 29.1657 11.554C30.3413 10.7059 31.356 9.65566 32.1625 8.45262Z" fill="white"/>
</svg>
