<svg width="40" height="38" viewBox="0 0 40 38" fill="none" xmlns="http://www.w3.org/2000/svg">
<path d="M36.0856 9.34811C34.8615 9.86394 33.5629 10.2024 32.2332 10.3522C33.6339 9.55574 34.6821 8.30247 35.1824 6.82595C33.8658 7.56911 32.4249 8.09229 30.9222 8.37276C30.0017 7.44101 28.8077 6.79363 27.4953 6.51461C26.1828 6.23558 24.8125 6.33777 23.5619 6.80794C22.3113 7.27811 21.2382 8.09455 20.4819 9.15135C19.7256 10.2082 19.3208 11.4566 19.3202 12.7346C19.3197 13.2236 19.3776 13.711 19.493 14.1876C16.8262 14.0606 14.2173 13.402 11.8356 12.2547C9.45391 11.1074 7.35272 9.49701 5.66842 7.52799C4.81077 8.93123 4.54799 10.5923 4.93356 12.1732C5.31913 13.754 6.32407 15.1359 7.74386 16.0375C6.67863 16.0061 5.63676 15.7329 4.70538 15.2406V15.3212C4.70558 16.7928 5.24143 18.2192 6.22203 19.3582C7.20263 20.4973 8.56763 21.279 10.0855 21.5707C9.50963 21.7199 8.91527 21.7951 8.31834 21.7941C7.89471 21.7941 7.47201 21.7566 7.05574 21.6819C7.48439 22.9481 8.31863 24.0554 9.44185 24.8489C10.5651 25.6425 11.9211 26.0827 13.3205 26.1081C10.5079 28.2011 6.93719 29.1498 3.39014 28.7467C6.45667 30.6201 10.026 31.6148 13.6716 31.6117C16.1825 31.6281 18.6718 31.1702 20.9949 30.2647C23.318 29.3591 25.4286 28.0239 27.2041 26.3366C28.9796 24.6493 30.3846 22.6436 31.3375 20.4359C32.2904 18.2282 32.7722 15.8626 32.755 13.4765C32.755 13.2 32.7482 12.9251 32.7345 12.652C34.0491 11.7485 35.1838 10.6297 36.0856 9.34811Z" fill="black"/>
</svg>
