<svg width="36" height="35" viewBox="0 0 36 35" fill="none" xmlns="http://www.w3.org/2000/svg">
<path d="M22.0356 2.91669H13.066C4.87304 2.91669 2.92383 4.8611 2.92383 13.0186V21.9662C2.92383 30.1388 4.85788 32.0833 13.0507 32.0833H22.0203C30.2133 32.0833 32.1625 30.154 32.1625 21.9813V13.0339C32.1625 4.8611 30.2284 2.91669 22.0356 2.91669ZM26.5279 23.7283H24.396C23.5889 23.7283 23.3452 23.075 21.8985 21.6319C20.6345 20.4167 20.1015 20.2647 19.7817 20.2647C19.3402 20.2647 19.2183 20.3862 19.2183 20.9939V22.908C19.2183 23.4245 19.0508 23.7283 17.6955 23.7283C16.3803 23.6401 15.1049 23.2416 13.9744 22.5655C12.8439 21.8893 11.8905 20.955 11.1929 19.8394C9.53667 17.783 8.3843 15.3695 7.82743 12.7908C7.82743 12.4718 7.94922 12.1831 8.55839 12.1831H10.6903C11.2386 12.1831 11.4366 12.4262 11.6497 12.9883C12.6852 16.0265 14.4518 18.6697 15.1675 18.6697C15.4416 18.6697 15.5634 18.5482 15.5634 17.8646V14.7352C15.4721 13.3073 14.7107 13.1857 14.7107 12.6693C14.7207 12.533 14.7836 12.406 14.8859 12.3153C14.9883 12.2245 15.1221 12.1771 15.2589 12.1831H18.6092C19.066 12.1831 19.2183 12.411 19.2183 12.9579V17.181C19.2183 17.6367 19.4163 17.7886 19.5533 17.7886C19.8274 17.7886 20.0406 17.6367 20.5431 17.1354C21.623 15.8217 22.5054 14.3582 23.1625 12.7908C23.2295 12.6022 23.3566 12.4407 23.5244 12.3309C23.6922 12.2212 23.8913 12.1693 24.0914 12.1831H26.2234C26.863 12.1831 27 12.5021 26.863 12.9579C26.0872 14.6908 25.1274 16.3358 24.0001 17.8646C23.7716 18.2139 23.6803 18.3962 24.0001 18.8064C24.2132 19.1254 24.9595 19.7482 25.462 20.3407C26.1929 21.068 26.7999 21.9095 27.2589 22.832C27.4416 23.4245 27.1371 23.7283 26.5279 23.7283Z" fill="white"/>
</svg>
