<svg width="41" height="38" viewBox="0 0 41 38" fill="none" xmlns="http://www.w3.org/2000/svg">
<path d="M25.5964 3.45071H15.5663C6.40476 3.45071 4.2251 5.52208 4.2251 14.2122V23.744C4.2251 32.4502 6.3878 34.5217 15.5493 34.5217H25.5793C34.7409 34.5217 36.9205 32.4665 36.9205 23.7601V14.2285C36.9205 5.52208 34.7578 3.45071 25.5964 3.45071ZM30.6198 25.6211H28.2358C27.3333 25.6211 27.0608 24.9252 25.4431 23.3879C24.0296 22.0933 23.4337 21.9314 23.0761 21.9314C22.5823 21.9314 22.446 22.0609 22.446 22.7082V24.7473C22.446 25.2975 22.2587 25.6211 20.7432 25.6211C19.2725 25.5272 17.8463 25.1027 16.5821 24.3824C15.318 23.6621 14.2519 22.6668 13.4718 21.4783C11.6198 19.2877 10.3311 16.7166 9.70844 13.9695C9.70844 13.6297 9.84463 13.3222 10.5258 13.3222H12.9098C13.5229 13.3222 13.7443 13.5811 13.9826 14.1799C15.1406 17.4164 17.116 20.2323 17.9163 20.2323C18.2228 20.2323 18.359 20.1028 18.359 19.3746V16.0409C18.2569 14.5198 17.4055 14.3902 17.4055 13.8401C17.4167 13.6949 17.487 13.5596 17.6014 13.4629C17.7159 13.3662 17.8655 13.3157 18.0185 13.3222H21.7649C22.2757 13.3222 22.446 13.5649 22.446 14.1475V18.6464C22.446 19.1319 22.6674 19.2936 22.8206 19.2936C23.1272 19.2936 23.3655 19.1319 23.9275 18.5978C25.1351 17.1984 26.1217 15.6392 26.8565 13.9695C26.9315 13.7686 27.0736 13.5965 27.2612 13.4796C27.4488 13.3628 27.6715 13.3074 27.8953 13.3222H30.2793C30.9945 13.3222 31.1478 13.662 30.9945 14.1475C30.127 15.9936 29.0538 17.746 27.7931 19.3746C27.5377 19.7468 27.4355 19.941 27.7931 20.3779C28.0315 20.7177 28.8659 21.3812 29.4279 22.0123C30.2452 22.7872 30.924 23.6836 31.4372 24.6664C31.6416 25.2975 31.301 25.6211 30.6198 25.6211Z" fill="black"/>
</svg>
