<svg width="24" height="24" viewBox="0 0 24 24" fill="none" xmlns="http://www.w3.org/2000/svg">
<path fill-rule="evenodd" clip-rule="evenodd" d="M1.49994 24C1.49994 24 0 24 0 22C0 20 1.49994 14 8.99965 14C16.4993 14 17.9993 20 17.9993 22C17.9993 24 16.4993 24 16.4993 24H1.49994ZM8.99965 12C10.1931 12 11.3376 11.3679 12.1815 10.2426C13.0254 9.11742 13.4995 7.5913 13.4995 6C13.4995 4.4087 13.0254 2.88258 12.1815 1.75736C11.3376 0.632141 10.1931 0 8.99965 0C7.80622 0 6.66167 0.632141 5.81779 1.75736C4.97391 2.88258 4.49982 4.4087 4.49982 6C4.49982 7.5913 4.97391 9.11742 5.81779 10.2426C6.66167 11.3679 7.80622 12 8.99965 12ZM18.2183 6.292C18.2879 6.19887 18.3707 6.12499 18.4618 6.07457C18.5529 6.02416 18.6506 5.99821 18.7493 5.99821C18.8479 5.99821 18.9456 6.02416 19.0367 6.07457C19.1278 6.12499 19.2106 6.19887 19.2802 6.292L20.9992 8.586L22.7181 6.292C22.8589 6.10423 23.0499 5.99874 23.2491 5.99874C23.4482 5.99874 23.6392 6.10423 23.7801 6.292C23.9209 6.47977 24 6.73445 24 7C24 7.26555 23.9209 7.52023 23.7801 7.708L22.0596 10L23.7801 12.292C23.9209 12.4798 24 12.7344 24 13C24 13.2656 23.9209 13.5202 23.7801 13.708C23.6392 13.8958 23.4482 14.0013 23.2491 14.0013C23.0499 14.0013 22.8589 13.8958 22.7181 13.708L20.9992 11.414L19.2802 13.708C19.1394 13.8958 18.9484 14.0013 18.7493 14.0013C18.5501 14.0013 18.3591 13.8958 18.2183 13.708C18.0775 13.5202 17.9983 13.2656 17.9983 13C17.9983 12.7344 18.0775 12.4798 18.2183 12.292L19.9387 10L18.2183 7.708C18.1484 7.61511 18.093 7.50476 18.0552 7.38327C18.0174 7.26178 17.998 7.13153 17.998 7C17.998 6.86847 18.0174 6.73822 18.0552 6.61673C18.093 6.49524 18.1484 6.38489 18.2183 6.292Z" fill="black"/>
</svg>
