<svg width="24" height="24" viewBox="0 0 24 24" fill="none" xmlns="http://www.w3.org/2000/svg">
<path d="M20 0H4C2.93913 0 1.92172 0.316071 1.17157 0.87868C0.421427 1.44129 0 2.20435 0 3V21C0 21.7956 0.421427 22.5587 1.17157 23.1213C1.92172 23.6839 2.93913 24 4 24H20C21.0609 24 22.0783 23.6839 22.8284 23.1213C23.5786 22.5587 24 21.7956 24 21V3C24 2.20435 23.5786 1.44129 22.8284 0.87868C22.0783 0.316071 21.0609 0 20 0ZM18 10.5C18 11.6935 17.3679 12.8381 16.2426 13.682C15.1174 14.5259 13.5913 15 12 15C10.4087 15 8.88258 14.5259 7.75736 13.682C6.63214 12.8381 6 11.6935 6 10.5C6 9.30653 6.63214 8.16193 7.75736 7.31802C8.88258 6.47411 10.4087 6 12 6C13.5913 6 15.1174 6.47411 16.2426 7.31802C17.3679 8.16193 18 9.30653 18 10.5ZM12 16.5C17.246 16.5 20.292 17.739 22 19.1325V21C22 21.3978 21.7893 21.7794 21.4142 22.0607C21.0391 22.342 20.5304 22.5 20 22.5H4C3.46957 22.5 2.96086 22.342 2.58579 22.0607C2.21071 21.7794 2 21.3978 2 21V19.1325C3.708 17.7375 6.754 16.5 12 16.5Z" fill="black"/>
</svg>
