<svg width="24" height="24" viewBox="0 0 24 24" fill="none" xmlns="http://www.w3.org/2000/svg">
<path fill-rule="evenodd" clip-rule="evenodd" d="M16.8925 12.219C16.9723 12.2887 17.0357 12.3714 17.0789 12.4625C17.1221 12.5537 17.1443 12.6513 17.1443 12.75C17.1443 12.8486 17.1221 12.9463 17.0789 13.0374C17.0357 13.1286 16.9723 13.2113 16.8925 13.281L11.7496 17.781C11.67 17.8508 11.5754 17.9063 11.4713 17.9441C11.3672 17.9819 11.2555 18.0013 11.1428 18.0013C11.03 18.0013 10.9184 17.9819 10.8143 17.9441C10.7101 17.9063 10.6156 17.8508 10.5359 17.781L7.9645 15.531C7.88481 15.4613 7.82159 15.3785 7.77846 15.2874C7.73533 15.1963 7.71313 15.0986 7.71313 15C7.71313 14.9014 7.73533 14.8037 7.77846 14.7126C7.82159 14.6215 7.88481 14.5387 7.9645 14.469C8.12545 14.3282 8.34375 14.2491 8.57136 14.2491C8.68406 14.2491 8.79567 14.2685 8.89979 14.3062C9.00391 14.344 9.09852 14.3993 9.17822 14.469L11.1428 16.1895L15.6788 12.219C15.7584 12.1492 15.853 12.0937 15.9571 12.0559C16.0613 12.0181 16.1729 11.9987 16.2856 11.9987C16.3984 11.9987 16.51 12.0181 16.6142 12.0559C16.7183 12.0937 16.8129 12.1492 16.8925 12.219Z" fill="black"/>
<path d="M12 1.5C13.1366 1.5 14.2267 1.89509 15.0305 2.59835C15.8342 3.30161 16.2857 4.25544 16.2857 5.25V6H7.71429V5.25C7.71429 4.25544 8.16582 3.30161 8.96954 2.59835C9.77327 1.89509 10.8634 1.5 12 1.5ZM18 6V5.25C18 3.85761 17.3679 2.52226 16.2426 1.53769C15.1174 0.553123 13.5913 0 12 0C10.4087 0 8.88258 0.553123 7.75736 1.53769C6.63214 2.52226 6 3.85761 6 5.25V6H0V21C0 21.7956 0.361224 22.5587 1.00421 23.1213C1.64719 23.6839 2.51926 24 3.42857 24H20.5714C21.4807 24 22.3528 23.6839 22.9958 23.1213C23.6388 22.5587 24 21.7956 24 21V6H18ZM1.71429 7.5H22.2857V21C22.2857 21.3978 22.1051 21.7794 21.7836 22.0607C21.4621 22.342 21.0261 22.5 20.5714 22.5H3.42857C2.97391 22.5 2.53788 22.342 2.21639 22.0607C1.8949 21.7794 1.71429 21.3978 1.71429 21V7.5Z" fill="black"/>
</svg>
