<svg width="217" height="330" viewBox="0 0 217 330" fill="none" xmlns="http://www.w3.org/2000/svg">
<rect x="0.000976562" width="217" height="330" fill="black"/>
<path d="M83.1167 157.693H85.4946C86.7616 157.693 87.8838 157.98 88.8611 158.554C89.844 159.128 90.6139 159.929 91.1707 160.957C91.7275 161.986 92.0059 163.179 92.0059 164.537C92.0003 165.901 91.719 167.097 91.1622 168.125C90.6111 169.153 89.8469 169.957 88.8696 170.537C87.898 171.111 86.7787 171.398 85.5116 171.398H83.1253C81.8525 171.398 80.7247 171.111 79.7417 170.537C78.7645 169.963 77.9974 169.162 77.4406 168.134C76.8838 167.105 76.6054 165.909 76.6054 164.545C76.6054 163.193 76.8838 162.003 77.4406 160.974C77.9974 159.946 78.7645 159.142 79.7417 158.562C80.7247 157.983 81.8497 157.693 83.1167 157.693ZM83.1253 159.125C82.0628 159.125 81.1622 159.358 80.4236 159.824C79.6906 160.284 79.1338 160.926 78.7531 161.75C78.3781 162.568 78.1934 163.511 78.1991 164.58C78.1991 165.631 78.3866 166.562 78.7616 167.375C79.1423 168.182 79.6963 168.815 80.4236 169.276C81.1565 169.736 82.0571 169.966 83.1253 169.966H85.5031C86.5656 169.966 87.4605 169.736 88.1878 169.276C88.9207 168.815 89.4747 168.179 89.8497 167.366C90.2247 166.548 90.4122 165.605 90.4122 164.537C90.4122 163.48 90.2219 162.545 89.8412 161.733C89.4662 160.915 88.9122 160.276 88.1792 159.815C87.4463 159.355 86.5457 159.125 85.4775 159.125H83.1253ZM85.1196 155.239V173.716H83.5258V155.239H85.1196ZM110.168 164.273C110.168 166.091 109.844 167.673 109.196 169.02C108.549 170.361 107.657 171.401 106.52 172.139C105.389 172.872 104.088 173.239 102.617 173.239C101.145 173.239 99.8412 172.872 98.7048 172.139C97.5741 171.401 96.6849 170.361 96.0372 169.02C95.3952 167.673 95.0741 166.091 95.0741 164.273C95.0741 162.455 95.3952 160.875 96.0372 159.534C96.6849 158.187 97.577 157.148 98.7133 156.415C99.8497 155.676 101.151 155.307 102.617 155.307C104.088 155.307 105.389 155.676 106.52 156.415C107.657 157.148 108.549 158.187 109.196 159.534C109.844 160.875 110.168 162.455 110.168 164.273ZM108.617 164.273C108.617 162.71 108.355 161.372 107.833 160.259C107.31 159.139 106.597 158.284 105.693 157.693C104.79 157.102 103.764 156.807 102.617 156.807C101.475 156.807 100.452 157.102 99.5486 157.693C98.6452 158.284 97.9292 159.136 97.4008 160.25C96.8781 161.364 96.6167 162.705 96.6167 164.273C96.6167 165.835 96.8781 167.173 97.4008 168.287C97.9236 169.401 98.6366 170.256 99.54 170.852C100.443 171.443 101.469 171.739 102.617 171.739C103.764 171.739 104.79 171.443 105.693 170.852C106.603 170.261 107.318 169.409 107.841 168.295C108.364 167.176 108.622 165.835 108.617 164.273ZM112.239 156.977V155.545H124.895V156.977H119.364V173H117.77V156.977H112.239ZM142.066 164.273C142.066 166.091 141.742 167.673 141.095 169.02C140.447 170.361 139.555 171.401 138.419 172.139C137.288 172.872 135.987 173.239 134.515 173.239C133.044 173.239 131.74 172.872 130.603 172.139C129.473 171.401 128.583 170.361 127.936 169.02C127.294 167.673 126.973 166.091 126.973 164.273C126.973 162.455 127.294 160.875 127.936 159.534C128.583 158.187 129.475 157.148 130.612 156.415C131.748 155.676 133.049 155.307 134.515 155.307C135.987 155.307 137.288 155.676 138.419 156.415C139.555 157.148 140.447 158.187 141.095 159.534C141.742 160.875 142.066 162.455 142.066 164.273ZM140.515 164.273C140.515 162.71 140.254 161.372 139.731 160.259C139.208 159.139 138.495 158.284 137.592 157.693C136.688 157.102 135.663 156.807 134.515 156.807C133.373 156.807 132.35 157.102 131.447 157.693C130.544 158.284 129.828 159.136 129.299 160.25C128.777 161.364 128.515 162.705 128.515 164.273C128.515 165.835 128.777 167.173 129.299 168.287C129.822 169.401 130.535 170.256 131.438 170.852C132.342 171.443 133.367 171.739 134.515 171.739C135.663 171.739 136.688 171.443 137.592 170.852C138.501 170.261 139.217 169.409 139.74 168.295C140.262 167.176 140.521 165.835 140.515 164.273Z" fill="white"/>
</svg>
